<?xml version="1.0" encoding="UTF-8" standalone="no"?>
<!-- Created with Inkscape (http://www.inkscape.org/) -->

<svg
   version="1.1"
   id="svg2"
   width="132.05333"
   height="187.45332"
   viewBox="0 0 132.05333 187.45332"
   sodipodi:docname="ƒƒTUshield_2c.eps"
   xmlns:inkscape="http://www.inkscape.org/namespaces/inkscape"
   xmlns:sodipodi="http://sodipodi.sourceforge.net/DTD/sodipodi-0.dtd"
   xmlns="http://www.w3.org/2000/svg"
   xmlns:svg="http://www.w3.org/2000/svg">
  <defs
     id="defs6" />
  <sodipodi:namedview
     id="namedview4"
     pagecolor="#ffffff"
     bordercolor="#000000"
     borderopacity="0.25"
     inkscape:showpageshadow="2"
     inkscape:pageopacity="0.0"
     inkscape:pagecheckerboard="0"
     inkscape:deskcolor="#d1d1d1" />
  <g
     id="g8"
     inkscape:groupmode="layer"
     inkscape:label="ink_ext_XXXXXX"
     transform="matrix(1.3333333,0,0,-1.3333333,0,187.45333)">
    <g
       id="g10"
       transform="scale(0.1)">
      <path
         d="M 6.51563,1394.44 6.65234,1081.82 6.80859,583.625 C 6.80859,405.551 18.5508,352.031 123.117,229.121 227.691,106.211 495.336,6.94922 495.336,6.94922 c 0,0 267.355,99.26178 372.004,222.17178 104.582,122.91 116.191,176.43 116.191,354.504 l 0.274,498.195 0.058,312.62 c 0,0 -120.429,-71.71 -243.015,-62.69 -139.016,10.21 -245.512,65 -245.512,65 0,0 -106.793,-54.79 -245.742,-65 -122.66,-9.02 -243.07837,62.69 -243.07837,62.69"
         style="fill:#ffffff;fill-opacity:1;fill-rule:nonzero;stroke:none"
         id="path12" />
      <path
         d="M 6.51563,1394.44 6.65234,1081.82 6.80859,583.625 C 6.80859,405.551 18.5508,352.031 123.117,229.121 227.691,106.211 495.336,6.94922 495.336,6.94922 c 0,0 267.355,99.26178 372.004,222.17178 104.582,122.91 116.191,176.43 116.191,354.504 l 0.274,498.195 0.058,312.62 c 0,0 -120.429,-71.71 -243.015,-62.69 -139.016,10.21 -245.512,65 -245.512,65 0,0 -106.793,-54.79 -245.742,-65 -122.66,-9.02 -243.07837,62.69 -243.07837,62.69 z"
         style="fill:none;stroke:#231f20;stroke-width:13.021;stroke-linecap:butt;stroke-linejoin:miter;stroke-miterlimit:4;stroke-dasharray:none;stroke-opacity:1"
         id="path14" />
      <path
         d="m 38.5547,1339.18 0.1367,-276.41 0.1289,-468.891 c 0,-167.606 7.7422,-221.25 106.1677,-336.957 98.426,-115.684 350.348,-209.1134 350.348,-209.1134 0,0 251.633,93.4294 350.09,209.1134 98.429,115.707 103.418,166.031 103.418,333.637 l 0.273,468.901 0.059,275.27 c 0,0 -107.422,-48.53 -222.781,-40.03 -130.832,9.63 -231.059,61.18 -231.059,61.18 0.016,0 -103.18,-51.75 -231.305,-61.18 -115.445,-8.5 -225.4763,44.48 -225.4763,44.48"
         style="fill:#2a5849;fill-opacity:1;fill-rule:nonzero;stroke:none"
         id="path16" />
      <path
         d="m 494.695,512.973 c -34.117,0 -141.574,-10.137 -217.511,65.8 -20.219,21.493 -44.34,67.293 -44.34,144.586 0,77.25 0,232.489 0,232.489 0,0 8.437,142.102 -43.024,165.892 l 3.973,19.46 c 0,0 156.48,25.52 193.355,44.37 l 10.762,-59.93 c 0,0 -76.57,-5.64 -76.57,-97.91 0.562,0.54 0.293,-267.222 0.293,-267.222 0,0 -0.953,-45.059 10.066,-73.707 15.449,-40.039 40.473,-57.824 162.492,-57.824"
         style="fill:#ffffff;fill-opacity:1;fill-rule:nonzero;stroke:none"
         id="path18" />
      <path
         d="m 494.695,512.973 c -34.117,0 -141.574,-10.137 -217.511,65.8 -20.219,21.493 -44.34,67.293 -44.34,144.586 0,77.25 0,232.489 0,232.489 0,0 8.437,142.102 -43.024,165.892 l 3.973,19.46 c 0,0 156.48,25.52 193.355,44.37 l 10.762,-59.93 c 0,0 -76.57,-5.64 -76.57,-97.91 0.562,0.54 0.293,-267.222 0.293,-267.222 0,0 -0.953,-45.059 10.066,-73.707 15.449,-40.039 40.473,-57.824 162.492,-57.824"
         style="fill:none;stroke:#231f20;stroke-width:10.013;stroke-linecap:butt;stroke-linejoin:miter;stroke-miterlimit:4;stroke-dasharray:none;stroke-opacity:1"
         id="path20" />
      <path
         d="m 494.664,512.973 c 34.121,0 141.602,-10.137 217.461,65.8 20.176,21.493 44.434,67.293 44.434,144.586 0,77.25 0,232.489 0,232.489 0,0 -8.524,142.102 42.961,165.892 l -3.965,19.46 c 0,0 -156.477,25.52 -193.391,44.37 l -10.742,-59.93 c 0,0 76.535,-5.64 76.535,-97.91 -0.519,0.54 -0.266,-267.222 -0.266,-267.222 0,0 0.95,-45.059 -10.105,-73.707 -15.441,-40.039 -40.449,-57.824 -162.445,-57.824"
         style="fill:#ffffff;fill-opacity:1;fill-rule:nonzero;stroke:none"
         id="path22" />
      <path
         d="m 494.664,512.973 c 34.121,0 141.602,-10.137 217.461,65.8 20.176,21.493 44.434,67.293 44.434,144.586 0,77.25 0,232.489 0,232.489 0,0 -8.524,142.102 42.961,165.892 l -3.965,19.46 c 0,0 -156.477,25.52 -193.391,44.37 l -10.742,-59.93 c 0,0 76.535,-5.64 76.535,-97.91 -0.519,0.54 -0.266,-267.222 -0.266,-267.222 0,0 0.95,-45.059 -10.105,-73.707 -15.441,-40.039 -40.449,-57.824 -162.445,-57.824"
         style="fill:none;stroke:#231f20;stroke-width:10.013;stroke-linecap:butt;stroke-linejoin:miter;stroke-miterlimit:4;stroke-dasharray:none;stroke-opacity:1"
         id="path24" />
      <path
         d="m 494.664,1036.43 c 227.695,0 338.242,-29.22 338.242,-29.22 l 47.715,-171.288 -52.48,-30.254 -79.18,114.867 c -96.688,13.922 -196.172,13.07 -196.172,13.07 l -0.691,-453.953 c 0,-37.804 7.187,-63.554 43.152,-63.554 0.52,0 66.867,0 66.867,0 v -111.27 h -168.148 1.437 -168.242 v 111.27 c 0,0 66.449,0 66.938,0 35.972,0 43.14,25.75 43.14,63.554 l -0.691,453.953 c 0,0 -99.485,0.852 -196.106,-13.07 l -79.281,-114.867 -52.41,30.254 47.742,171.288 c 0,0 110.414,29.22 338.199,29.22 h -0.031"
         style="fill:#ffffff;fill-opacity:1;fill-rule:nonzero;stroke:none"
         id="path26" />
      <path
         d="m 494.664,1036.43 c 227.695,0 338.242,-29.22 338.242,-29.22 l 47.715,-171.288 -52.48,-30.254 -79.18,114.867 c -96.688,13.922 -196.172,13.07 -196.172,13.07 l -0.691,-453.953 c 0,-37.804 7.187,-63.554 43.152,-63.554 0.52,0 66.867,0 66.867,0 v -111.27 h -168.148 1.437 -168.242 v 111.27 c 0,0 66.449,0 66.938,0 35.972,0 43.14,25.75 43.14,63.554 l -0.691,453.953 c 0,0 -99.485,0.852 -196.106,-13.07 l -79.281,-114.867 -52.41,30.254 47.742,171.288 c 0,0 110.414,29.22 338.199,29.22 z"
         style="fill:none;stroke:#231f20;stroke-width:10.013;stroke-linecap:butt;stroke-linejoin:miter;stroke-miterlimit:4;stroke-dasharray:none;stroke-opacity:1"
         id="path28" />
    </g>
  </g>
</svg>
